PathFileType	4	(X/Y/Z)	 New Session 105.trc
DataRate	CameraRate	NumFrames	NumMarkers	Units	OrigDataRate	OrigDataStartFrame	OrigNumFrames
100	100	20	14	m	100	267	711
Frame#	Time	C7			T8			IJ			PX			AA			AC			AI			TS			SC			GH			LE			ME			US			RS			
		X1	Y1	Z1	X2	Y2	Z2	X3	Y3	Z3	X4	Y4	Z4	X5	Y5	Z5	X6	Y6	Z6	X7	Y7	Z7	X8	Y8	Z8	X9	Y9	Z9	X10	Y10	Z10	X11	Y11	Z11	X12	Y12	Z12	X13	Y13	Z13	X14	Y14	Z14	
267	2.6700	-0.000159	0.102961	0.163134	0.022099	-0.113139	0.230892	0.001055	-0.000857	-0.004756	0.018326	-0.143799	-0.067932	0.178641	0.067106	0.172759	0.128522	0.095617	0.097987	0.079301	0.035142	0.210617	0.103284	-0.083815	0.224622	0.024518	0.011392	0.000391	0.171860	0.095086	0.137930	0.426587	0.111213	0.071810	0.462036	0.025471	0.091693	0.531999	0.034137	-0.180168	0.454678	0.014991	-0.181115	
268	2.6800	-0.000558	0.103005	0.163162	0.022254	-0.113086	0.230954	0.000914	-0.000824	-0.004669	0.018495	-0.143771	-0.067880	0.178152	0.067641	0.172984	0.127908	0.096119	0.098286	0.078983	0.035329	0.210771	0.103376	-0.083531	0.224665	0.024407	0.011462	0.000471	0.171173	0.095710	0.138342	0.425734	0.113039	0.071733	0.461594	0.027477	0.091213	0.531551	0.037940	-0.180686	0.454673	0.018463	-0.181580	
269	2.6900	-0.000879	0.103031	0.163204	0.022379	-0.113043	0.231032	0.000714	-0.000814	-0.004582	0.018632	-0.143748	-0.067810	0.177715	0.068065	0.173197	0.127343	0.096586	0.098564	0.078695	0.035483	0.210908	0.103435	-0.083287	0.224741	0.024229	0.011514	0.000559	0.170599	0.096272	0.138756	0.424980	0.114548	0.071659	0.461125	0.029108	0.090706	0.531096	0.041330	-0.181195	0.454498	0.021554	-0.182125	
270	2.7000	-0.001132	0.103034	0.163270	0.022468	-0.113014	0.231121	0.000483	-0.000831	-0.004492	0.018731	-0.143734	-0.067724	0.177321	0.068370	0.173431	0.126849	0.096973	0.098836	0.078433	0.035596	0.211038	0.103459	-0.083094	0.224836	0.023988	0.011538	0.000658	0.170139	0.096693	0.139106	0.424318	0.115778	0.071596	0.460667	0.030393	0.090182	0.530662	0.044299	-0.181678	0.454177	0.024288	-0.182716	
271	2.7100	-0.001348	0.103019	0.163365	0.022520	-0.112995	0.231218	0.000248	-0.000871	-0.004396	0.018786	-0.143728	-0.067623	0.176977	0.068558	0.173665	0.126420	0.097249	0.099105	0.078191	0.035671	0.211167	0.103453	-0.082955	0.224936	0.023698	0.011538	0.000766	0.169760	0.096924	0.139342	0.423732	0.116768	0.071547	0.460273	0.031390	0.089674	0.530264	0.046841	-0.182124	0.453778	0.026672	-0.183305	
272	2.7200	-0.001555	0.102995	0.163487	0.022538	-0.112985	0.231316	0.000029	-0.000927	-0.004295	0.018791	-0.143731	-0.067511	0.176694	0.068659	0.173873	0.126031	0.097427	0.099341	0.077965	0.035713	0.211297	0.103421	-0.082866	0.225032	0.023388	0.011522	0.000880	0.169412	0.096967	0.139462	0.423215	0.117547	0.071509	0.459942	0.032161	0.089195	0.529896	0.048966	-0.182529	0.453371	0.028708	-0.183848	
273	2.7300	-0.001762	0.102972	0.163627	0.022529	-0.112984	0.231413	-0.000163	-0.000992	-0.004189	0.018748	-0.143738	-0.067393	0.176465	0.068712	0.174053	0.125663	0.097539	0.099528	0.077756	0.035733	0.211427	0.103370	-0.082821	0.225118	0.023084	0.011506	0.000995	0.169080	0.096917	0.139543	0.422765	0.118135	0.071473	0.459655	0.032746	0.088749	0.529556	0.050716	-0.182900	0.453006	0.030400	-0.184322	
274	2.7400	-0.001966	0.102952	0.163773	0.022498	-0.112991	0.231508	-0.000334	-0.001062	-0.004078	0.018660	-0.143747	-0.067269	0.176277	0.068745	0.174215	0.125301	0.097596	0.099714	0.077567	0.035736	0.211555	0.103304	-0.082808	0.225195	0.022807	0.011497	0.001110	0.168792	0.096962	0.139695	0.422383	0.118547	0.071422	0.459402	0.033165	0.088339	0.529261	0.052154	-0.183251	0.452716	0.031757	-0.184721	
275	2.7500	-0.002166	0.102926	0.163921	0.022449	-0.113011	0.231610	-0.000493	-0.001133	-0.003962	0.018535	-0.143755	-0.067143	0.176119	0.068769	0.174363	0.124966	0.097672	0.099901	0.077400	0.035726	0.211680	0.103227	-0.082818	0.225270	0.022569	0.011493	0.001224	0.168551	0.097163	0.139974	0.422063	0.118796	0.071346	0.459166	0.033421	0.087952	0.529017	0.053307	-0.183595	0.452516	0.032790	-0.185054	
276	2.7600	-0.002368	0.102887	0.164078	0.022382	-0.113047	0.231725	-0.000653	-0.001199	-0.003834	0.018384	-0.143763	-0.067014	0.175969	0.068789	0.174490	0.124678	0.097812	0.100052	0.077252	0.035706	0.211802	0.103144	-0.082845	0.225351	0.022370	0.011486	0.001339	0.168336	0.097401	0.140337	0.421801	0.118898	0.071240	0.458927	0.033514	0.087568	0.528822	0.054176	-0.183933	0.452403	0.033521	-0.185341	
277	2.7700	-0.002574	0.102828	0.164244	0.022301	-0.113099	0.231854	-0.000830	-0.001251	-0.003689	0.018218	-0.143769	-0.066884	0.175824	0.068795	0.174600	0.124424	0.097939	0.100185	0.077116	0.035673	0.211917	0.103057	-0.082882	0.225448	0.022203	0.011473	0.001460	0.168153	0.097543	0.140643	0.421590	0.118879	0.071107	0.458677	0.033454	0.087181	0.528664	0.054770	-0.184264	0.452347	0.033988	-0.185629	
278	2.7800	-0.002777	0.102754	0.164410	0.022215	-0.113161	0.231990	-0.001036	-0.001281	-0.003523	0.018048	-0.143774	-0.066752	0.175698	0.068774	0.174686	0.124200	0.097986	0.100321	0.076988	0.035627	0.212025	0.102966	-0.082925	0.225564	0.022052	0.011455	0.001590	0.168011	0.097561	0.140833	0.421423	0.118764	0.070950	0.458426	0.033274	0.086796	0.528538	0.055108	-0.184580	0.452286	0.034246	-0.185993	
279	2.7900	-0.002967	0.102676	0.164567	0.022133	-0.113231	0.232126	-0.001275	-0.001285	-0.003341	0.017884	-0.143778	-0.066620	0.175606	0.068721	0.174743	0.124022	0.097973	0.100457	0.076868	0.035570	0.212128	0.102869	-0.082970	0.225699	0.021900	0.011435	0.001732	0.167908	0.097503	0.140948	0.421291	0.118578	0.070766	0.458201	0.033008	0.086431	0.528439	0.055219	-0.184874	0.452127	0.034355	-0.186532	
280	2.8000	-0.003136	0.102600	0.164712	0.022059	-0.113303	0.232259	-0.001545	-0.001269	-0.003148	0.017731	-0.143784	-0.066488	0.175551	0.068634	0.174776	0.123901	0.097962	0.100581	0.076755	0.035503	0.212230	0.102762	-0.083018	0.225852	0.021733	0.011414	0.001885	0.167838	0.097424	0.141031	0.421183	0.118335	0.070547	0.458017	0.032696	0.086097	0.528368	0.055128	-0.185149	0.451768	0.034371	-0.187333	
281	2.8100	-0.003277	0.102525	0.164851	0.021995	-0.113378	0.232385	-0.001830	-0.001244	-0.002959	0.017591	-0.143794	-0.066360	0.175521	0.068516	0.174807	0.123829	0.097972	0.100680	0.076655	0.035429	0.212335	0.102646	-0.083068	0.226016	0.021544	0.011389	0.002041	0.167800	0.097348	0.141101	0.421094	0.118041	0.070288	0.457868	0.032353	0.085804	0.528343	0.054841	-0.185414	0.451128	0.034332	-0.188441	
282	2.8200	-0.003389	0.102446	0.164992	0.021941	-0.113455	0.232504	-0.002106	-0.001228	-0.002782	0.017467	-0.143810	-0.066236	0.175507	0.068388	0.174848	0.123770	0.097958	0.100753	0.076566	0.035355	0.212444	0.102525	-0.083122	0.226186	0.021334	0.011359	0.002195	0.167782	0.097280	0.141172	0.421021	0.117692	0.069992	0.457731	0.031966	0.085543	0.528388	0.054355	-0.185674	0.450180	0.034257	-0.189841	
283	2.8300	-0.003480	0.102361	0.165142	0.021898	-0.113535	0.232613	-0.002356	-0.001233	-0.002624	0.017357	-0.143832	-0.066116	0.175495	0.068278	0.174897	0.123693	0.097908	0.100813	0.076485	0.035287	0.212556	0.102405	-0.083178	0.226356	0.021110	0.011323	0.002346	0.167773	0.097223	0.141248	0.420968	0.117282	0.069666	0.457597	0.031537	0.085308	0.528489	0.053678	-0.185924	0.448994	0.034129	-0.191453	
284	2.8400	-0.003566	0.102272	0.165304	0.021871	-0.113616	0.232718	-0.002574	-0.001262	-0.002482	0.017261	-0.143860	-0.066002	0.175471	0.068197	0.174934	0.123591	0.097859	0.100872	0.076410	0.035227	0.212667	0.102296	-0.083236	0.226520	0.020879	0.011282	0.002495	0.167760	0.097177	0.141321	0.420937	0.116808	0.069323	0.457468	0.031061	0.085091	0.528621	0.052832	-0.186155	0.447768	0.033899	-0.193123	
285	2.8500	-0.003659	0.102188	0.165472	0.021862	-0.113700	0.232821	-0.002762	-0.001309	-0.002346	0.017175	-0.143892	-0.065894	0.175434	0.068128	0.174948	0.123475	0.097826	0.100936	0.076338	0.035178	0.212775	0.102206	-0.083290	0.226673	0.020656	0.011232	0.002646	0.167743	0.097134	0.141372	0.420929	0.116271	0.068980	0.457336	0.030511	0.084887	0.528777	0.051864	-0.186349	0.446841	0.033477	-0.194618	
286	2.8600	-0.003768	0.102117	0.165638	0.021869	-0.113784	0.232924	-0.002929	-0.001367	-0.002205	0.017100	-0.143925	-0.065789	0.175389	0.068062	0.174956	0.123359	0.097782	0.101011	0.076271	0.035138	0.212878	0.102143	-0.083336	0.226812	0.020450	0.011167	0.002795	0.167733	0.097096	0.141389	0.420938	0.115678	0.068649	0.457184	0.029870	0.084688	0.528964	0.050828	-0.186498	0.446541	0.032775	-0.195690	
